<svg xmlns="http://www.w3.org/2000/svg" width="168" height="52" viewBox="0 0 168 52">
    <title>IQOS</title>
    <g fill="none" fill-rule="evenodd">
        <g fill="#34303D" fill-rule="nonzero">
            <g>
                <path d="M40.981 7.814l5.957 10.372 5.956 10.372c2.996 5.221 2.613 11.073 0 15.628C50.282 48.741 45.405 52 39.414 52H15.586c-5.992 0-10.834-3.259-13.481-7.814-2.613-4.555-2.996-10.442 0-15.628l5.956-10.372L14.02 7.814C17.015 2.593 22.24 0 27.5 0s10.485 2.593 13.481 7.814M27.5 9.04c-5.608 0-10.694 2.278-14.387 5.992-3.692 3.715-5.956 8.83-5.956 14.472 0 5.642 2.264 10.757 5.956 14.472 3.693 3.714 8.779 5.992 14.387 5.992 5.608 0 10.694-2.278 14.387-5.992 3.692-3.715 5.956-8.83 5.956-14.472 0-5.641-2.264-10.757-5.956-14.472C38.194 11.318 33.143 9.04 27.5 9.04M129.5 18.13c1.095 0 2.052.138 2.907.382.855.243 1.573.626 2.12 1.078.444.382.752.8.992 1.286.205.487.341 1.009.341 1.6v6.189c0 .59-.102 1.112-.341 1.6-.206.486-.548.903-.992 1.286-.547.487-1.265.834-2.12 1.078-.855.243-1.812.382-2.906.382h-8.274c-1.094 0-2.052-.139-2.907-.382-.854-.244-1.572-.626-2.12-1.078-.444-.383-.752-.8-.991-1.287-.24-.487-.342-1.008-.342-1.6v-6.188c0-.591.103-1.113.342-1.6.205-.487.547-.904.992-1.286.547-.487 1.265-.835 2.12-1.078.854-.244 1.812-.383 2.906-.383h8.274m0-3.094h-8.274c-3.043 0-5.403.834-6.975 2.19-1.573 1.356-2.394 3.234-2.394 5.285v6.19c0 2.051.82 3.929 2.394 5.285 1.572 1.356 3.932 2.19 6.975 2.19h8.274c3.043 0 5.402-.834 6.975-2.19 1.573-1.356 2.393-3.234 2.393-5.285v-6.19c0-2.051-.82-3.929-2.393-5.285-1.573-1.356-3.932-2.19-6.975-2.19m-23.865 18.567c-.171-.174-.41-.347-.65-.452-.24-.104-.513-.139-.752-.139H89.053c-1.094 0-2.052-.139-2.906-.382-.855-.244-1.573-.626-2.12-1.078-.445-.383-.752-.8-.992-1.287-.205-.487-.342-1.008-.342-1.6V18.582c0-.104.035-.243.137-.313.068-.07.171-.139.308-.139H97.293c1.094 0 2.051.14 2.906.383s1.573.626 2.12 1.078c.444.382.752.8.992 1.286.205.487.341 1.009.341 1.6v5.772c0 .347.137.695.377.938.239.244.547.383.923.383h.479c.341 0 .683-.14.923-.383.239-.243.376-.556.376-.938v-5.772c0-2.052-.82-3.93-2.394-5.285-1.573-1.357-3.932-2.191-6.975-2.191H81.018c-.342 0-.684.14-.923.382-.24.244-.376.557-.376.94V28.63c0 2.052.82 3.93 2.393 5.285 1.573 1.356 3.932 2.19 6.975 2.19h14.292c.137 0 .273.035.41.07.137.07.24.14.342.244l1.573 1.6 1.573 1.599c.239.243.58.382.923.382.342 0 .65-.14.923-.382l.171-.174.17-.174c.24-.244.377-.591.377-.939s-.137-.695-.376-.939l-1.88-1.912-1.95-1.878zm45.61-18.567c-2.77 0-4.786.626-6.086 1.669-1.299 1.043-1.914 2.468-1.914 4.033v.626c0 1.565.615 2.99 1.914 4.033 1.3 1.043 3.317 1.67 6.086 1.67H159.931c.957 0 1.778.104 2.496.278.718.173 1.3.417 1.71.764.239.21.444.418.546.73.103.314.171.696.171 1.183 0 .521-.068.904-.17 1.182-.103.278-.308.522-.548.73-.41.313-.991.591-1.71.765-.717.174-1.572.278-2.495.278h-10.257c-.582 0-1.163-.104-1.676-.347-.547-.209-1.025-.522-1.436-.94l-.342-.347-.342-.348c-.273-.243-.615-.382-.923-.382-.342 0-.684.139-.923.417l-.137.174-.136.174c-.24.278-.377.626-.342.939 0 .347.136.66.41.939l.342.347.342.348c.718.695 1.538 1.217 2.427 1.565.89.347 1.847.556 2.804.556h10.257c2.77 0 4.787-.626 6.086-1.67 1.3-1.042 1.915-2.468 1.915-4.032v-.626c0-1.565-.615-2.99-1.915-4.034-1.299-1.043-3.316-1.669-6.086-1.669h-8.684c-.958 0-1.778-.104-2.496-.278-.718-.174-1.3-.417-1.71-.765-.24-.208-.444-.417-.547-.73-.137-.313-.17-.695-.17-1.182 0-.522.068-.904.17-1.182.137-.313.308-.522.547-.73.41-.313.992-.592 1.71-.765.718-.174 1.573-.279 2.496-.279h9.436c.548 0 1.129.105 1.642.313.513.209.991.487 1.402.87l.444.382.444.382c.274.244.616.348.958.348.342-.035.65-.174.889-.452l.137-.174.136-.174c.24-.278.342-.625.342-.973-.034-.348-.17-.66-.444-.904l-.445-.383-.444-.382c-.684-.626-1.505-1.148-2.36-1.46-.854-.348-1.777-.522-2.735-.522H156l-4.753.035zM71 16.356v18.428c0 .383.137.696.376.94.24.243.547.382.923.382h.411c.376 0 .683-.14.923-.383.239-.243.376-.556.376-.939V16.356c0-.382-.137-.695-.376-.939-.24-.243-.547-.382-.923-.382h-.411c-.376 0-.684.139-.923.382-.24.244-.376.557-.376.94z"></path>
            </g>
        </g>
    </g>
</svg>